<?xml version="1.0" encoding="utf-8"?>
<!-- Generator: Adobe Illustrator 16.0.0, SVG Export Plug-In . SVG Version: 6.00 Build 0)  -->
<!DOCTYPE svg PUBLIC "-//W3C//DTD SVG 1.1//EN" "http://www.w3.org/Graphics/SVG/1.1/DTD/svg11.dtd">
<svg version="1.1"
	 id="svg2" xmlns:dc="http://purl.org/dc/elements/1.1/" xmlns:cc="http://creativecommons.org/ns#" xmlns:rdf="http://www.w3.org/1999/02/22-rdf-syntax-ns#" xmlns:svg="http://www.w3.org/2000/svg" xmlns:sodipodi="http://sodipodi.sourceforge.net/DTD/sodipodi-0.dtd" xmlns:inkscape="http://www.inkscape.org/namespaces/inkscape" sodipodi:docname="RIT Hockey.svg" inkscape:version="0.48.1 "
	 xmlns="http://www.w3.org/2000/svg" xmlns:xlink="http://www.w3.org/1999/xlink" x="0px" y="0px" width="57px" height="57px"
	 viewBox="112.385 0.094 57 57" enable-background="new 112.385 0.094 57 57" xml:space="preserve">
<g id="g3880" transform="matrix(0.18631092,0,0,0.18631092,-4.1159027,-12.485593)">
	<g id="_x23_c7c8caff">
		<path id="path50" inkscape:connector-curvature="0" fill="#C7C8CA" d="M688.641,117.006c6.599,0.603,12.858,3.302,19.535,3.302
			c7.674,0.225,15.19-1.562,22.591-3.328c-2.505,2.589-4.953,5.226-7.354,7.889l-0.215,0.236
			C711.516,124.13,698.265,124.858,688.641,117.006z"/>
		<path id="path52" inkscape:connector-curvature="0" fill="#C7C8CA" d="M905.239,173.18c2.815-1.038,4.801-3.334,6.95-5.299
			c-1.185,2.851-3.161,5.236-6.122,6.337c0.063,0.477,0.189,1.415,0.252,1.876l-1.116,0.1c0.404,3.837-2.353,6.725-4.272,9.702
			C902.891,181.845,903.865,177.447,905.239,173.18z"/>
		<path id="path54" inkscape:connector-curvature="0" fill="#C7C8CA" d="M892.512,202.219c3.077-0.739,5.954-2.149,8.953-3.213
			c2.547,6.903,2.039,14.289,2.348,21.501c-0.236,1.751-1.583,3.087-2.422,4.576c-0.089-7.239-0.43-14.886-4.476-21.16
			c-3.051,1.96-6.636,3.124-9.76,0.634c-3.066,2.102-6.615,2.002-9.613-0.136c-1.866,0.697-3.68,1.688-5.666,1.913
			c-1.572-0.676-2.972-1.641-4.408-2.516c-1.793,1.064-3.428,2.678-5.577,2.914c-2.175-0.351-4.115-1.473-6.075-2.374
			c0.152-0.702,0.445-2.112,0.587-2.825c3.874,1.499,7.972,1.651,11.6-0.598c4.775,2.946,10.022-0.812,14.975,1.483
			C886.118,201.422,889.325,201.883,892.512,202.219L892.512,202.219z"/>
		<path id="path56" inkscape:connector-curvature="0" fill="#C7C8CA" d="M838.126,202.334c1.866-0.204,3.727-0.315,5.629-0.404
			c2.212,9.026,2.285,18.288,2.464,27.513c-1.143,1.4-2.306,2.762-3.454,4.141c0.1-8.879-0.199-17.9-3.266-26.339
			C839.027,205.605,838.566,203.969,838.126,202.334z"/>
		<path id="path58" inkscape:connector-curvature="0" fill="#C7C8CA" d="M817.138,203.031c5.551-0.273,11.112-0.498,16.679-0.435
			c0.419,2.112,0.886,4.235,1.321,6.363c-2.076-0.278-3.858-1.352-5.451-2.642C825.378,209.855,819.854,207.119,817.138,203.031
			L817.138,203.031z"/>
		<path id="path62" inkscape:connector-curvature="0" fill="#C7C8CA" d="M843.053,281.77c0.702-2.338,2.5-0.262,2.726,1.012
			c-3.061,6.452-5.053,13.35-5.954,20.413c-3.323-1.583-6.285-3.763-8.921-6.311C836.511,293.244,839.84,287.431,843.053,281.77
			L843.053,281.77z"/>
		<path id="path64" inkscape:connector-curvature="0" fill="#C7C8CA" d="M878.952,281.083c0.498,1.122,1.012,2.275,1.525,3.423
			c-2.5,5.551-4.34,11.364-6.599,17.012c-6.101-1.206-12.276-0.157-18.424-0.461c-2.626-0.273-5.042,0.923-7.412,1.824
			c-0.031-0.608-0.063-1.845-0.079-2.464c3.024-2.631,7.013-3.86,10.562-1.405c2.039-1.468,4.34-1.74,6.678-0.828
			c2.149-1.101,4.461-1.006,6.562,0.199C874.591,292.793,877.018,287.032,878.952,281.083z"/>
		<path id="path66" inkscape:connector-curvature="0" fill="#C7C8CA" d="M811.289,297.869c6.248,4.497,9.812,11.573,15.337,16.825
			c5.865,6.353,13.864,11.227,22.748,11.238c6.154,0.535,11.778-2.411,17.737-3.218l1.457,0.304
			c-2.495,4.56-6.237,8.25-10.703,10.892c-0.514-1.677-1.012-3.355-1.499-5.032c-1.976,2.013-3.889,4.078-5.86,6.08
			c-0.54-1.803-1.09-3.585-1.656-5.367c-2.322,1.876-4.634,3.753-6.971,5.598c-2.967-5.346-10.137-2.757-14.215-6.573
			c-4.586-4.225-6.562-10.368-9.299-15.798C816.316,307.682,813.48,302.933,811.289,297.869z"/>
	</g>
	<g id="_x23_000000ff">
		<path id="path75" inkscape:connector-curvature="0" d="M725.767,102.309c23.283-3.339,45.937-11.851,69.734-10.976
			c8.638,0.273,16.679,3.685,24.929,5.834c10.609,0.225,19.226,7.029,27.885,12.302c5.1-0.425,10.389-1.95,15.452-0.639
			c3.522,1.992,2.123,6.688,1.546,9.875c4.691,1.95,9.65,4.015,12.989,8.014c3.014,3.737,3.349,8.738,3.863,13.314
			c6.164,2.175,12.265,4.513,18.288,7.05c4.875,2.16,9.948,4.676,13.078,9.173c4.696,6.704,7.71,14.839,7.412,23.1
			c-0.325,6.966-2.516,13.728-5.556,19.965c-2.584,5.011-2.322,10.861-4.047,16.16c-2.034,6.604-4.712,13.576-10.127,18.125
			c-2.312,2.154-5.498-0.435-5.724-3.024c-0.933-6.075-0.199-12.312-1.74-18.309c-4.733,0.708-9.508-0.514-14.1,1.337
			c-6.447,9.624-12.632,20.201-13.434,32.026c0.016,11.673,3.989,22.858,7.752,33.761c1.384-2.076,2.401-5.462,5.451-5.352
			c2.768-0.309,4.749,2.249,5.619,4.576c2.128,5.514,1.19,11.537,1.111,17.287c4.429,5.328,4.979,13.128,1.316,18.998
			c-1.976,3.805-6.924,4.969-8.324,9.141c-4.288,9.613-11.851,18.66-22.324,21.574c-5.85,1.489-11.563,3.397-17.266,5.357
			c0.178-1.048,0.524-3.124,0.713-4.172c-3.098,0.818-6.175,1.635-9.246,2.464c0.047-2.589,0.094-5.189,0.173-7.779
			c-6.767-1.143-13.874-3.784-17.816-9.718c-2.631-4.277-3.984-9.173-5.698-13.848c-8.124-2.201-15.971-6.101-24.578-5.965
			c-7.972-0.136-16.521,0.923-23.147,5.724c-4.576,3.784-8.214,8.9-9.524,14.76c-13.203-6.489-23.236-18.01-29.442-31.208
			c-7.15,3.417-12.863,10.085-14.509,17.905c-11.542-5.871-21.05-15.316-27.141-26.745c-6.961,5.286-15.547,7.571-23.944,9.417
			c3.171-8.84,4.193-18.228,3.994-27.568c-7.847,0.912-15.798-1.038-22.586-4.959c8.701-7.501,11.904-18.901,14.026-29.751
			c-4.702,2.5-9.954,3.601-15.248,3.459c2.935-9.624,6.085-19.174,8.659-28.897c4.403-18.251,15.064-34.6,28.902-47.137
			c7.548-6.562,14.247-14,20.851-21.49c-7.527-4.088-13.665-10.31-18.304-17.449c-3.549-5.472-7.265-11.06-9.099-17.386
			c-0.524-4.728,4.613-7.951,8.926-7.564C692.242,103.682,709.089,104.385,725.767,102.309 M768.476,108.546
			c1.216-2.49,2.516-4.938,3.853-7.375c-12.816,2.338-24.876,9.487-33.263,19.446c1.751-4.686,3.989-9.199,6.751-13.371
			c-12.826,2.726-25.878,4.324-38.961,5.221c-8.701,0.566-17.329-1.158-26.019-1.075c-0.419-0.173-1.284-0.524-1.709-0.687
			c3.087,2.212,6.374,4.151,9.513,6.3c9.624,7.852,22.874,7.123,34.558,8.098l0.215-0.236c9.786,1.352,20.416,4.125,26.638,12.449
			c-8.649,0.828-17.423,1.567-25.637,4.576c-3.753,1.478-7.946,2.464-10.84,5.477c-10.399,10.436-21.197,20.484-31.858,30.663
			c-5.551,5.236-9.377,12.008-12.129,19.085c7.626-4.209,15.892-7.113,24.426-8.801c-8.376,8.575-18,16.852-21.627,28.74
			c-3.313,11.51-4.471,23.524-6.935,35.239c9.335-9,18.309-18.366,27.613-27.403c-3.989,17.737-12.936,34.049-15.075,52.237
			c3.774-1.814,7.501-3.721,11.238-5.65c1.373,9.099,4.796,18.052,11.248,24.777c6.877-6.515,16.223-9.377,25.448-10.373
			c-12.071-9.98-20.788-25.689-17.758-41.712c7.16,13.335,16.7,26.224,30.359,33.436c18.964,10.174,39.778,16.196,60.414,21.949
			c-2.841-5.249-5.787-10.439-8.549-15.712c6.3,1.363,11.925,4.623,16.548,9.089c1.352,1.709,2.652,3.522,4.351,4.935
			c2.191,5.063,5.027,9.812,7.076,14.949c2.736,5.43,4.712,11.573,9.299,15.798c4.078,3.816,11.248,1.227,14.215,6.573
			c2.338-1.845,4.649-3.722,6.971-5.598c0.566,1.782,1.116,3.564,1.656,5.367c1.971-2.002,3.884-4.067,5.86-6.08
			c0.487,1.677,0.985,3.355,1.499,5.032c4.466-2.642,8.208-6.332,10.703-10.892l-1.457-0.304l1.478-0.168
			c0.765-1.73,1.562-3.428,2.364-5.126c3.386-1.342,6.861-2.967,8.575-6.426c-15.248,6.185-33.667,6.342-47.85-2.642
			c-6.51-3.942-10.179-10.798-14.467-16.797c-7.611-10.661-14.97-21.574-23.975-31.135c-7.034-7.663-11.621-17.952-10.525-28.504
			c1.253-12.25,6.489-25.123,17.067-32.162c9.236-5.509,20.437-4.948,30.799-5.472c21.753,0.162,42.509-8.738,64.314-7.899
			c-0.629-2.002-0.776-4.628-3.04-5.488c-6.237-2.652-12.962-4.901-17.685-10.011c-1.976-2.002-1.263-4.953-1.237-7.454
			c2.422-4.026,6.672-6.348,11.364-6.437c7.737-1.373,15.033,3.999,22.722,1.84c-10.478-8.654-24.426-10.74-36.791-15.552
			c-6.562-2.123-9.907-8.675-14.31-13.46c3.26-0.902,6.51-0.089,9.162,1.934c0.702,1.012,1.462,2.039,2.212,3.051
			c1.887-0.577,3.816-1.085,5.75-1.572c-1.101-1.651-2.374-3.166-3.873-4.44c-4.875-2.076-9.875-3.863-14.813-5.776
			c-7.076-2.736-12.978-7.663-19.714-11.075c2.626,3.989,5.865,7.516,9.01,11.102c-4.424-1.651-9.162-3.203-12.37-6.861
			c-4.078-4.44-8.229-9.629-14.441-10.939c-7.349-0.875-14.734,0.325-22.088,0.66c3.098-2.773,6.95-4.335,10.85-5.645
			C792.618,97.859,779.881,102.817,768.476,108.546 M878.564,162.592c-1.861,1.242-1.137,3.402-0.65,5.152
			c1.552-2.836,4.44-4.503,7.6-4.801c6.4-1.31,12.459,1.84,18.749,2.374c3.093,0.241,5.21-2.448,7.427-4.172
			c-4.104,1.085-8.392,2.364-12.585,1.101C892.481,160.543,884.729,158.383,878.564,162.592 M905.239,173.18
			c-1.373,4.267-2.348,8.664-4.309,12.716c1.924-2.977,4.675-5.865,4.272-9.702l1.116-0.1c-0.063-0.461-0.189-1.4-0.252-1.876
			c2.961-1.101,4.938-3.486,6.122-6.337C910.04,169.847,908.054,172.142,905.239,173.18 M910.742,180.608
			c-1.174,2.773-2.768,5.336-4.812,7.548c1.934,0.776,3.884,1.578,5.823,2.39c1.247-3.853,2.008-7.826,2.348-11.851
			C912.965,179.318,911.843,179.958,910.742,180.608 M843.755,201.93c-1.903,0.089-3.763,0.204-5.629,0.404
			c-1.069,0.063-3.239,0.199-4.309,0.262c-5.567-0.063-11.128,0.163-16.679,0.435c2.715,4.088,8.24,6.825,12.548,3.286
			c1.593,1.289,3.376,2.364,5.451,2.642c1.436-0.587,2.893-1.164,4.361-1.714c3.066,8.439,3.365,17.46,3.266,26.339
			c1.148-1.379,2.312-2.741,3.454-4.141c5.525-7.296,8.187-16.16,9.597-25.086c1.96,0.902,3.9,2.023,6.075,2.374
			c2.149-0.236,3.784-1.85,5.577-2.914c1.436,0.875,2.836,1.84,4.413,2.516c1.981-0.225,3.795-1.216,5.661-1.913
			c2.998,2.139,6.547,2.238,9.613,0.136c3.124,2.49,6.709,1.326,9.76-0.634c4.047,6.274,4.387,13.922,4.476,21.16
			c0.839-1.489,2.186-2.825,2.422-4.576c3.528-6.887,4.55-14.687,5.677-22.25c-4.974-1.473-10.059-2.637-15.227-3.134
			C877.102,193.68,860.664,200.342,843.755,201.93 M796.487,250.97c1.289,1.572,2.228,3.611,4.041,4.686
			c7.024,0.812,15.227,0.225,20.678,5.64c6.919,7.684,5.462,19.022,10.431,27.696c5.839-4.796,6.767-13.974,14.042-17.124
			c4.487,5.263,5.21,12.375,7.349,18.712c5.388,0.687,10.96,0.702,16.223-0.76c-2.222-4.303-5.834-8.004-6.594-12.952
			c-1.981-9.975-3.145-21.286-11.007-28.635c-3.145-3.265-7.972-4.565-12.244-2.867c3.334,4.303,5.85,9.251,6.61,14.703
			c-4.335-6.248-8.449-13.964-16.527-15.777C818.05,240.796,806.33,245.184,796.487,250.97 M843.053,281.77
			c-3.213,5.661-6.542,11.474-12.15,15.114c2.636,2.547,5.598,4.728,8.921,6.311c12.716,6.217,27.99,5.273,40.213-1.667
			c0.43-5.658,0.666-11.345,0.44-17.022c-0.514-1.148-1.027-2.301-1.525-3.423c-1.934,5.949-4.361,11.71-7.186,17.3
			c-2.102-1.206-4.413-1.3-6.562-0.199c-2.338-0.912-4.639-0.639-6.678,0.828c-3.549-2.456-7.537-1.227-10.562,1.405
			c-0.136-5.936-0.896-11.833-2.186-17.635C845.553,281.508,843.755,279.432,843.053,281.77L843.053,281.77z"/>
		<path id="path77" inkscape:connector-curvature="0" d="M775.038,128.333c10.74-0.949,20.987-4.424,31.387-7.013
			c7.453,4.974,15.001,9.812,22.455,14.776c2.296,1.462,4.985,3.171,7.852,2.385c2.385-0.598,3.522-2.988,4.985-4.712l0.55-0.739
			c1.41,3.826,2.736,9.016-1.101,11.94c-5.986,4.198-13.848,1.887-20.301,0.1c-7.385,6.337-18.173,8.051-27.288,4.901
			c-3.402-1.075-5.991-3.611-7.815-6.589c-4.597,1.751-9.498,1.939-14.21,0.54c3.947-1.137,8.654-1.74,11.086-5.514
			c-7.422,0.037-14.802-1.861-20.914-6.138c7.165,1.489,14.614,2.264,21.805,0.425c-3.428-1.337-6.95-2.427-10.368-3.774
			l0.713-0.225C774.168,128.595,774.755,128.417,775.038,128.333 M795.402,137.155c-0.928,2.49-1.001,5.488,1.352,7.228
			c5.462,4.675,13.623,2.374,18.749-1.703c-2.039-1.436-4.078-2.862-6.101-4.272c-1.227,1.976-2.511,3.91-3.863,5.797
			c-0.1-2.71-0.199-5.409-0.362-8.109C801.906,136.432,798.651,136.767,795.402,137.155z"/>
		<path id="path81" inkscape:connector-curvature="0" d="M737.241,156.57c3.685-6.348,9.587-11.835,17.177-12.674
			c11.547-1.499,21.826,5.2,31.607,10.273c4.565,2.574,9.964,1.3,14.918,1.263c-4.026,3.224-9.204,4.497-14.236,3.349
			c-10.216-1.835-21.029,0.414-29.3,6.777c4.398-6.3,11.322-10.08,18.822-11.301c-7.962-4.188-17.229-7.129-26.25-5.1
			C745.041,150.206,741.052,153.472,737.241,156.57L737.241,156.57z"/>
		<path id="path83" inkscape:connector-curvature="0" d="M805.45,168.159c14.278-0.938,23.477-14.687,37.64-15.604
			c8.339-0.383,15.94,4.953,20.175,11.841c-6.426-3.874-13.649-7.59-21.386-6.825c-6.075,0.372-11.013,4.209-16.265,6.809
			c-6.452,3.313-13.759,4.288-20.898,4.791C804.905,168.919,805.266,168.405,805.45,168.159L805.45,168.159z"/>
		<path id="path85" inkscape:connector-curvature="0" d="M824.54,171.833c7.485-4.24,16.013-7.674,24.803-6.5
			c8.062,1.436,13.869,7.899,18.597,14.126c-6.599-3.68-13.251-8.203-21.04-8.565c-7.632-0.162-14.362,3.847-21.396,6.185
			c-10.09,3.753-21.401,3.915-31.586,0.477C804.391,178.804,815.199,176.755,824.54,171.833z"/>
		<path id="path87" inkscape:connector-curvature="0" d="M758.318,184.02c2.883-2.825,5.897-5.525,9.147-7.936
			c-3.727,5.137-7.909,9.949-10.923,15.573c-5.325,9.414-7.537,20.138-9.44,30.674c-3.449,3.627-6.935,7.228-10.074,11.128
			C740.229,215.731,746.54,197.92,758.318,184.02L758.318,184.02z"/>
		<path id="path89" inkscape:connector-curvature="0" d="M829.53,185.231c7.82-1.635,15.274-5.488,23.409-5.373
			c5.074,0.273,9.749,2.448,14.278,4.586c-5.525,0.299-11.065,0.388-16.563,0.985c-7.139,1.001-14.047,3.412-21.302,3.528
			c-6.997,0.351-13.874-1.253-20.589-3.024C815.681,185.917,822.715,187.018,829.53,185.231z"/>
		<path id="path91" inkscape:connector-curvature="0" d="M761.253,212.571c2.684-10.027,7.265-19.525,13.287-27.964
			c-3.234,8.712-6.348,17.538-8.035,26.711c-2.752,14.226-3.218,29.589,2.789,43.075c4.707,10.452,13.371,19.766,24.719,22.801
			c-0.157,0.262-0.498,0.776-0.66,1.027c-10.761-1.803-23.299-4.864-28.661-15.489C757.028,247.307,757.374,229.008,761.253,212.571
			z"/>
	</g>
	<path id="path98" inkscape:connector-curvature="0" fill="#F36E21" stroke="#F36E21" d="M768.476,108.546
		c11.406-5.729,24.143-10.688,37.126-8.287c-3.9,1.31-7.752,2.872-10.85,5.645c7.354-0.335,14.739-1.536,22.088-0.66
		c6.211,1.31,10.363,6.5,14.441,10.939c3.208,3.659,7.946,5.21,12.37,6.861c-3.145-3.585-6.384-7.113-9.01-11.102
		c6.735,3.412,12.637,8.339,19.714,11.075c4.938,1.913,9.938,3.701,14.813,5.776c-1.363,1.001-2.736,1.976-4.088,2.961
		c-2.652-2.023-5.902-2.836-9.162-1.934c4.403,4.786,7.747,11.337,14.31,13.46c12.365,4.812,26.313,6.898,36.791,15.552
		c-7.689,2.16-14.986-3.213-22.722-1.84c-4.691,0.089-8.942,2.411-11.364,6.437c-2.128-2.888-4.24-5.776-6.437-8.601
		c0.409,8.203,4.885,15.153,9.183,21.826c-4.413-3.8-8.9-7.585-12.412-12.26c-4.235-6.887-11.835-12.223-20.175-11.841
		c-14.163,0.917-23.362,14.666-37.64,15.604c-0.189,0.246-0.545,0.76-0.734,1.012c-4.801,1.085-9.713,0.875-14.54,0.136
		c5.116-3.276,9.812-7.548,10.766-13.874c-4.953,0.037-10.352,1.31-14.918-1.263c-9.781-5.074-20.06-11.773-31.607-10.273
		c-7.59,0.839-13.492,6.321-17.177,12.674c6.725-3.79,14.472-4.927,21.999-3.087c-6.536,3.989-13.261,7.936-18.503,13.623
		c-9.676,9.901-13.948,23.676-16.081,37.037c6.023-4.712,11.773-9.849,18.498-13.586c4.796-2.736,10.059-4.461,15.164-6.536
		c-11.778,13.901-18.094,31.712-21.291,49.439c3.14-3.9,6.625-7.501,10.074-11.128c4.078-4.088,9.078-7.071,14.152-9.76
		c-3.879,16.438-4.225,34.736,3.438,50.162c5.362,10.625,17.9,13.686,28.661,15.489c0.163-0.252,0.503-0.765,0.66-1.027
		c1.499,0.461,3.176,0.875,4.13,2.275c3.449,4.099,6.72,8.476,8.795,13.466c-4.623-4.466-10.247-7.726-16.548-9.089
		c2.762,5.273,5.708,10.462,8.549,15.712c-20.636-5.753-41.45-11.775-60.414-21.949c-13.659-7.212-23.199-20.101-30.359-33.436
		c-3.03,16.023,5.687,31.732,17.758,41.712c-9.225,0.996-18.571,3.858-25.448,10.373c-6.452-6.725-9.875-15.678-11.248-24.777
		c-3.737,1.929-7.464,3.837-11.238,5.65c2.133-18.188,11.086-34.5,15.075-52.237c-9.304,9.036-18.277,18.403-27.613,27.403
		c2.464-11.715,3.622-23.729,6.935-35.239c3.627-11.888,13.251-20.164,21.627-28.74c-8.533,1.688-16.799,4.592-24.426,8.801
		c2.752-7.076,6.578-13.848,12.129-19.085c10.661-10.179,21.459-20.227,31.858-30.663c2.893-3.014,7.087-3.999,10.84-5.477
		c8.214-3.009,16.988-3.748,25.637-4.576c-6.222-8.324-16.852-11.096-26.638-12.449c2.401-2.663,4.848-5.299,7.354-7.889
		c0.996-1.022,2.013-2.049,3.019-3.072c-17.475,2.359-36.298,4.974-52.95-2.516c8.69-0.084,17.318,1.641,26.019,1.075
		c13.083-0.896,26.134-2.495,38.955-5.221c-2.757,4.172-4.995,8.685-6.746,13.371c8.387-9.959,20.447-17.108,33.263-19.446
		C770.992,103.609,769.692,106.057,768.476,108.546 M782.586,122.358c-6.982,2.201-13.895-1.227-20.599-2.851
		c3.019,3.999,7.181,6.762,11.406,9.325l0.482-0.136l-0.713,0.225c3.417,1.347,6.94,2.437,10.368,3.774
		c-7.191,1.84-14.64,1.064-21.805-0.425c6.112,4.277,13.492,6.175,20.914,6.138c-2.437,3.774-7.139,4.377-11.086,5.514
		c4.712,1.4,9.613,1.211,14.21-0.54c1.824,2.977,4.413,5.514,7.815,6.589c9.115,3.15,19.902,1.436,27.288-4.901
		c6.452,1.787,14.315,4.099,20.301-0.1c3.837-2.925,2.511-8.114,1.101-11.94l-0.556,0.739c-2.547,0.839-5.525,3.349-8.187,1.399
		c-8.649-5.886-16.7-12.622-24.772-19.273C799.705,116.493,791.24,119.947,782.586,122.358z"/>
	<path id="path106" inkscape:connector-curvature="0" fill="#F36E21" stroke="#F36E21" d="M796.487,250.97
		c9.844-5.787,21.564-10.174,33.001-6.678c8.077,1.814,12.192,9.529,16.527,15.777c-0.76-5.451-3.276-10.399-6.61-14.703
		c4.272-1.698,9.099-0.398,12.244,2.867c7.862,7.349,9.026,18.66,11.007,28.635c0.76,4.948,4.371,8.649,6.594,12.952
		c-5.263,1.462-10.834,1.447-16.223,0.76c-2.139-6.337-2.862-13.45-7.349-18.712c-7.275,3.15-8.203,12.328-14.042,17.124
		c-4.969-8.675-3.512-20.012-10.431-27.696c-5.451-5.415-13.654-4.827-20.678-5.64C798.714,254.582,797.776,252.543,796.487,250.97
		L796.487,250.97z"/>
</g>
</svg>
